# xmcd
#
# Track frame offsets: 
#        150
#        17055
#        17588
#        35378
#        36683
#        56236
#        59394
#        75684
#        77589
#        92552
#        94285
#        111010
#
# Disc length: 1493 seconds
#
# Revision: 0
# Processed by: cddbd v1.5.2PL0 Copyright (c) Steve Scherf et al.
# Submitted via: ExactAudioCopy v0.99pb5
#
DISCID=9405d30c
DTITLE=Highlands Country - October 24, 2010
DYEAR=2010
DGENRE=Country
TTITLE0=This Is My Life
TTITLE1=Welcome
TTITLE2=All For You
TTITLE3=Continue To Stand
TTITLE4=Amazing Grace
TTITLE5=Talking
TTITLE6=Learn To Live
TTITLE7=Talking
TTITLE8=Something More
TTITLE9=Prayer
TTITLE10=God Must Really Love Me
TTITLE11=Shout Out To Bill
EXTD=
EXTT0=
EXTT1=
EXTT2=
EXTT3=
EXTT4=
EXTT5=
EXTT6=
EXTT7=
EXTT8=
EXTT9=
EXTT10=
EXTT11=
PLAYORDER=
